<svg id="Layer_1" data-name="Layer 1" xmlns="http://www.w3.org/2000/svg" viewBox="0 0 400 400"><defs><style>.cls-1{fill:#b96b69;}.cls-2{fill:#fff;}</style></defs><circle class="cls-1" cx="200" cy="200" r="200"/><path class="cls-2" d="M255.42969,298.50049V267.78955c-15.73,21.34766-40.82324,31.835-72.28369,31.835-40.82325,0-67.04-25.84277-67.04-59.5498,0-34.457,27.34033-56.17969,73.78174-56.55371h64.793V171.16162c0-28.83887-17.977-46.44141-52.8081-46.44141-21.72266,0-41.94727,8.23926-62.5459,22.84571L126.9668,126.96729c25.46826-16.85352,46.81591-26.5918,80.52343-26.5918,48.68848,0,75.65479,25.84277,76.0293,67.79l.37451,130.335Zm-.37451-67.78906V206.7417H193.63281c-32.95849,0-50.18652,10.1123-50.18652,32.209,0,21.72266,17.60254,36.32911,45.31787,36.32911C222.09668,275.27979,247.56494,258.80029,255.05518,230.71143Z"/></svg>